<mxfile host="65bd71144e">
    <diagram id="Iqh0p4z0CSAQo3-YcA2V" name="ページ1">
        <mxGraphModel dx="688" dy="505" grid="1" gridSize="10" guides="1" tooltips="1" connect="1" arrows="1" fold="1" page="1" pageScale="1" pageWidth="827" pageHeight="1169" math="0" shadow="0">
            <root>
                <mxCell id="0"/>
                <mxCell id="1" parent="0"/>
                <mxCell id="2" value="道教&lt;div&gt;～五行&lt;span style=&quot;color: rgb(63, 63, 63); background-color: transparent;&quot;&gt;～&lt;/span&gt;&lt;/div&gt;" style="text;html=1;align=center;verticalAlign=middle;whiteSpace=wrap;rounded=0;fillColor=#dae8fc;strokeColor=#6c8ebf;" parent="1" vertex="1">
                    <mxGeometry x="50" y="80" width="160" height="40" as="geometry"/>
                </mxCell>
                <mxCell id="59" value="木" style="ellipse;whiteSpace=wrap;html=1;aspect=fixed;fillColor=#dae8fc;strokeColor=#6c8ebf;" vertex="1" parent="1">
                    <mxGeometry x="180" y="160" width="80" height="80" as="geometry"/>
                </mxCell>
                <mxCell id="61" value="火" style="ellipse;whiteSpace=wrap;html=1;aspect=fixed;fillColor=#f8cecc;strokeColor=#b85450;" vertex="1" parent="1">
                    <mxGeometry x="310" y="270" width="80" height="80" as="geometry"/>
                </mxCell>
                <mxCell id="62" value="土" style="ellipse;whiteSpace=wrap;html=1;aspect=fixed;fillColor=#fff2cc;strokeColor=#d6b656;" vertex="1" parent="1">
                    <mxGeometry x="260" y="410" width="80" height="80" as="geometry"/>
                </mxCell>
                <mxCell id="63" value="金" style="ellipse;whiteSpace=wrap;html=1;aspect=fixed;" vertex="1" parent="1">
                    <mxGeometry x="100" y="410" width="80" height="80" as="geometry"/>
                </mxCell>
                <mxCell id="64" value="水" style="ellipse;whiteSpace=wrap;html=1;aspect=fixed;fillColor=#B3B3B3;strokeColor=#FFFFFF;" vertex="1" parent="1">
                    <mxGeometry x="50" y="270" width="80" height="80" as="geometry"/>
                </mxCell>
                <mxCell id="65" value="" style="shape=flexArrow;endArrow=classic;html=1;" edge="1" parent="1">
                    <mxGeometry width="50" height="50" relative="1" as="geometry">
                        <mxPoint x="275" y="230" as="sourcePoint"/>
                        <mxPoint x="310" y="260" as="targetPoint"/>
                    </mxGeometry>
                </mxCell>
                <mxCell id="66" value="" style="shape=flexArrow;endArrow=classic;html=1;" edge="1" parent="1">
                    <mxGeometry width="50" height="50" relative="1" as="geometry">
                        <mxPoint x="282.5" y="100" as="sourcePoint"/>
                        <mxPoint x="318" y="100" as="targetPoint"/>
                    </mxGeometry>
                </mxCell>
                <mxCell id="67" value="相生&lt;div&gt;相手を生じる関係&lt;/div&gt;" style="text;html=1;align=center;verticalAlign=middle;whiteSpace=wrap;rounded=0;" vertex="1" parent="1">
                    <mxGeometry x="330" y="80" width="110" height="40" as="geometry"/>
                </mxCell>
                <mxCell id="68" value="" style="endArrow=classic;html=1;" edge="1" parent="1">
                    <mxGeometry width="50" height="50" relative="1" as="geometry">
                        <mxPoint x="280" y="140" as="sourcePoint"/>
                        <mxPoint x="320" y="140" as="targetPoint"/>
                    </mxGeometry>
                </mxCell>
                <mxCell id="69" value="相克&lt;div&gt;抑制する関係&lt;/div&gt;" style="text;html=1;align=center;verticalAlign=middle;whiteSpace=wrap;rounded=0;" vertex="1" parent="1">
                    <mxGeometry x="330" y="120" width="110" height="40" as="geometry"/>
                </mxCell>
                <mxCell id="70" value="" style="shape=flexArrow;endArrow=classic;html=1;" edge="1" parent="1">
                    <mxGeometry width="50" height="50" relative="1" as="geometry">
                        <mxPoint x="332.5" y="360" as="sourcePoint"/>
                        <mxPoint x="310" y="400" as="targetPoint"/>
                    </mxGeometry>
                </mxCell>
                <mxCell id="71" value="" style="shape=flexArrow;endArrow=classic;html=1;" edge="1" parent="1">
                    <mxGeometry width="50" height="50" relative="1" as="geometry">
                        <mxPoint x="240" y="450" as="sourcePoint"/>
                        <mxPoint x="200" y="449.71" as="targetPoint"/>
                    </mxGeometry>
                </mxCell>
                <mxCell id="72" value="" style="shape=flexArrow;endArrow=classic;html=1;" edge="1" parent="1">
                    <mxGeometry width="50" height="50" relative="1" as="geometry">
                        <mxPoint x="120" y="400" as="sourcePoint"/>
                        <mxPoint x="100" y="360" as="targetPoint"/>
                    </mxGeometry>
                </mxCell>
                <mxCell id="73" value="" style="shape=flexArrow;endArrow=classic;html=1;" edge="1" parent="1">
                    <mxGeometry width="50" height="50" relative="1" as="geometry">
                        <mxPoint x="130" y="260" as="sourcePoint"/>
                        <mxPoint x="160" y="230" as="targetPoint"/>
                    </mxGeometry>
                </mxCell>
                <mxCell id="74" value="" style="endArrow=classic;html=1;" edge="1" parent="1">
                    <mxGeometry width="50" height="50" relative="1" as="geometry">
                        <mxPoint x="140" y="300.00000000000006" as="sourcePoint"/>
                        <mxPoint x="300" y="300.29" as="targetPoint"/>
                    </mxGeometry>
                </mxCell>
                <mxCell id="75" value="" style="endArrow=classic;html=1;" edge="1" parent="1">
                    <mxGeometry width="50" height="50" relative="1" as="geometry">
                        <mxPoint x="160" y="400" as="sourcePoint"/>
                        <mxPoint x="210" y="250" as="targetPoint"/>
                    </mxGeometry>
                </mxCell>
                <mxCell id="76" value="" style="endArrow=classic;html=1;" edge="1" parent="1">
                    <mxGeometry width="50" height="50" relative="1" as="geometry">
                        <mxPoint x="230" y="250" as="sourcePoint"/>
                        <mxPoint x="270" y="400" as="targetPoint"/>
                    </mxGeometry>
                </mxCell>
                <mxCell id="77" value="" style="endArrow=classic;html=1;" edge="1" parent="1">
                    <mxGeometry width="50" height="50" relative="1" as="geometry">
                        <mxPoint x="300" y="320" as="sourcePoint"/>
                        <mxPoint x="190" y="410" as="targetPoint"/>
                    </mxGeometry>
                </mxCell>
                <mxCell id="78" value="" style="endArrow=classic;html=1;" edge="1" parent="1">
                    <mxGeometry width="50" height="50" relative="1" as="geometry">
                        <mxPoint x="250" y="410" as="sourcePoint"/>
                        <mxPoint x="140" y="320" as="targetPoint"/>
                    </mxGeometry>
                </mxCell>
            </root>
        </mxGraphModel>
    </diagram>
</mxfile>